<svg id="Layer_3" data-name="Layer 3" xmlns="http://www.w3.org/2000/svg" viewBox="0 0 805.23 770.146">
  <g>
    <g>
      <g>
        <rect x="232.666" y="9.168" width="453.17" height="527.791" rx="16.26" transform="translate(918.502 546.126) rotate(-180)" fill="#fff"></rect>
        <path d="M231.666,520.7V25.427a17.279,17.279,0,0,1,17.26-17.259h420.65a17.279,17.279,0,0,1,17.26,17.259V520.7a17.28,17.28,0,0,1-17.26,17.26H248.926A17.28,17.28,0,0,1,231.666,520.7Zm17.26-510.531a15.277,15.277,0,0,0-15.26,15.259V520.7a15.278,15.278,0,0,0,15.26,15.26h420.65a15.278,15.278,0,0,0,15.26-15.26V25.427a15.277,15.277,0,0,0-15.26-15.259Z" fill="#292a2e"></path>
      </g>
      <g>
        <path d="M335,769.742a1,1,0,0,1-.99-1.143l33.442-230.784a1,1,0,1,1,1.979.287L335.984,768.886A1,1,0,0,1,335,769.742Z" fill="#292a2e"></path>
        <path d="M583.505,769.742a1,1,0,0,1-.988-.856L549.074,538.1a1,1,0,0,1,1.979-.287L584.5,768.6a1,1,0,0,1-.99,1.143Z" fill="#292a2e"></path>
      </g>
      <g opacity="0.1">
        <rect x="266.906" y="47.309" width="384.689" height="216.255" rx="11.512" transform="translate(918.502 310.872) rotate(-180)" fill="#367cff"></rect>
      </g>
      <g>
        <g opacity="0.1">
          <path d="M266.5,487.01V300.87a12.061,12.061,0,0,1,12.048-12.047H638.954A12.061,12.061,0,0,1,651,300.87V487.01a12.061,12.061,0,0,1-12.048,12.048H278.548A12.061,12.061,0,0,1,266.5,487.01Z" fill="#367cff"></path>
        </g>
        <g>
          <rect id="gra5_b" x="602.97" y="331.045" width="11.051" height="140.539" rx="1.949" transform="translate(1216.991 802.629) rotate(-180)" fill="#fff"></rect>
          <rect id="gra5_b-2" data-name="gra5_b" x="614.021" y="375.186" width="11.051" height="96.399" rx="1.949" transform="translate(1239.094 846.77) rotate(-180)" fill="#367cff" opacity="0.3"></rect>
        </g>
        <g>
          <rect id="gra5_b-3" data-name="gra5_b" x="514.53" y="453.802" width="11.051" height="17.783" rx="1.949" transform="translate(1040.111 925.386) rotate(-180)" fill="#fff"></rect>
          <rect id="gra5_b-4" data-name="gra5_b" x="525.581" y="367.249" width="11.051" height="104.335" rx="1.949" transform="translate(1062.213 838.833) rotate(-180)" fill="#367cff" opacity="0.3"></rect>
        </g>
        <g>
          <rect id="gra5_b-5" data-name="gra5_b" x="558.75" y="387.462" width="11.051" height="84.122" rx="1.949" transform="translate(1128.551 859.046) rotate(-180)" fill="#fff"></rect>
          <rect id="gra5_b-6" data-name="gra5_b" x="569.801" y="416.528" width="11.051" height="55.056" rx="1.949" transform="translate(1150.654 888.112) rotate(-180)" fill="#367cff" opacity="0.3"></rect>
        </g>
        <g>
          <rect id="gra5_b-7" data-name="gra5_b" x="381.87" y="358.225" width="11.051" height="113.359" rx="1.949" transform="translate(774.79 829.809) rotate(-180)" fill="#fff"></rect>
          <rect id="gra5_b-8" data-name="gra5_b" x="392.921" y="399.96" width="11.051" height="71.624" rx="1.949" transform="translate(796.893 871.545) rotate(-180)" fill="#367cff" opacity="0.3"></rect>
        </g>
        <g>
          <rect id="gra5_b-9" data-name="gra5_b" x="470.31" y="375.908" width="11.051" height="95.676" rx="1.949" transform="translate(951.671 847.492) rotate(-180)" fill="#fff"></rect>
          <rect id="gra5_b-10" data-name="gra5_b" x="481.361" y="386.74" width="11.051" height="84.844" rx="1.949" transform="translate(973.773 858.324) rotate(-180)" fill="#367cff" opacity="0.3"></rect>
        </g>
        <g>
          <rect id="gra5_b-11" data-name="gra5_b" x="426.09" y="331.045" width="11.051" height="140.539" rx="1.949" transform="translate(863.231 802.629) rotate(-180)" fill="#fff"></rect>
          <rect id="gra5_b-12" data-name="gra5_b" x="437.141" y="337.815" width="11.051" height="133.769" rx="1.949" transform="translate(885.333 809.399) rotate(-180)" fill="#367cff" opacity="0.3"></rect>
        </g>
        <g>
          <rect id="gra5_b-13" data-name="gra5_b" x="337.649" y="331.045" width="11.051" height="140.539" rx="1.949" transform="translate(686.35 802.629) rotate(-180)" fill="#fff"></rect>
          <rect id="gra5_b-14" data-name="gra5_b" x="348.701" y="375.186" width="11.051" height="96.399" rx="1.949" transform="translate(708.453 846.77) rotate(-180)" fill="#367cff" opacity="0.3"></rect>
        </g>
        <g>
          <rect id="gra5_b-15" data-name="gra5_b" x="293.429" y="387.462" width="11.051" height="84.122" rx="1.949" transform="translate(597.91 859.046) rotate(-180)" fill="#fff"></rect>
          <rect id="gra5_b-16" data-name="gra5_b" x="304.481" y="416.528" width="11.051" height="55.056" rx="1.949" transform="translate(620.013 888.112) rotate(-180)" fill="#367cff" opacity="0.3"></rect>
        </g>
      </g>
      <g>
        <path id="gra15_a" d="M625.172,116.709V236.337a1.919,1.919,0,0,1-1.918,1.919H295.248a1.919,1.919,0,0,1-1.918-1.919V172.829a1.918,1.918,0,0,1,.959-1.662l58.074-33.53a1.919,1.919,0,0,1,1.944.015l26.143,15.624a1.917,1.917,0,0,0,2.136-.112l27.451-20.606a1.918,1.918,0,0,1,1.976-.2l33.876,16.112a1.919,1.919,0,0,0,2.2-.394L485.7,109.459a1.918,1.918,0,0,1,2.524-.2l24.422,18.287a1.918,1.918,0,0,0,2.424-.1l15.979-14.2a1.917,1.917,0,0,1,2.373-.139L556.1,128.937a1.921,1.921,0,0,0,2.219-.016L597.531,100.7a1.921,1.921,0,0,1,2.092-.1l24.6,14.449A1.917,1.917,0,0,1,625.172,116.709Z" fill="#367cff" opacity="0.2"></path>
        <g id="gra15_a-2" data-name="gra15_a">
          <path d="M294.433,171.18a.947.947,0,0,0,.479-.129l58.253-33.634L380.9,153.992a.961.961,0,0,0,1.068-.056l28.944-21.728,35.641,16.951a.961.961,0,0,0,1.1-.2l39.154-40.206,26.349,19.73a.959.959,0,0,0,1.212-.05l17.716-15.748L556.5,129.733a.96.96,0,0,0,1.109-.008l40.825-29.376,25.15,14.77a.959.959,0,1,0,.973-1.654l-25.69-15.088a.961.961,0,0,0-1.047.049L557.04,127.77l-24.479-17.087a.957.957,0,0,0-1.186.069l-17.7,15.73-26.4-19.766a.958.958,0,0,0-1.262.1l-39.262,40.318-35.545-16.906a.958.958,0,0,0-.988.1l-28.894,21.69-27.664-16.534a.961.961,0,0,0-.972-.007l-58.742,33.915a.96.96,0,0,0,.481,1.791Z" fill="#367cff" opacity="0.61"></path>
        </g>
      </g>
    </g>
    <g>
      <g>
        <path d="M81.161,725.273s4.515,23.4,26.428,24.708,17.161,18.761,17.161,18.761H41.011V726.905Z" fill="#367cff"></path>
        <path d="M35.332,298.343s6.262-7.036,6.207,8.923c-.207,59.529-4.224,432.943-4.224,432.943l55.026-.462,33.333-443.823Z" fill="#262626"></path>
        <path d="M175.122,725.273s4.515,23.4,26.428,24.708,17.161,18.761,17.161,18.761H134.972V726.905Z" fill="#367cff"></path>
        <path d="M185.765,302.965s6.874,203.456,6.16,213.4l-6.464,222.3-54.116,1-8.727-231.343s-5.72-63.816-21.139-123.074a459.358,459.358,0,0,1-14.168-92.937h0Z" fill="#262626"></path>
        <path d="M114.373,447.215l4.512-69.009s4.635,28.689,4.635,53.417c0,12.087-2.489,59.942-2.489,59.942Z" fill="#0a0a0a"></path>
        <path d="M34.734,298.336l-.18.01S34.684,294.876,34.734,298.336Z" fill="#333"></path>
      </g>
      <g>
        <path d="M34.96,298.336l-.18.01S34.91,294.876,34.96,298.336Z" fill="#333"></path>
        <g>
          <path d="M336.486,133.2a3.549,3.549,0,0,0-3.628-1.92.273.273,0,0,0-.331-.306l2.46-1.763a3.693,3.693,0,0,0,1.218-4.7,3.556,3.556,0,0,0-4.5-1.591c.006-.034-.018-.068-.023-.1l1.011-.725a3.647,3.647,0,0,0,1.282-4.431,3.563,3.563,0,0,0-5.322-1.432l-2.333,1.673c-.007-.014,0-.03-.009-.043s-.035-.018-.048-.032a3.554,3.554,0,0,0,.234-4.431c-1.1-1.772-3.643-1.41-5.152-.329l-13.732,9.486,2.454-4.133a3.693,3.693,0,0,0-.977-4.948,3.559,3.559,0,0,0-5.04,1.14l-13.4,22.563a11.827,11.827,0,0,0,3.842,16.033h0a17.924,17.924,0,0,0,20.032-.575l20.738-14.864A3.812,3.812,0,0,0,336.486,133.2Z" fill="#E98862"></path>
          <g opacity="0.25">
            <path d="M312.732,127.277a.328.328,0,0,0,.452.076l13.048-9.037a.328.328,0,1,0-.374-.54l-13.048,9.037a.329.329,0,0,0-.083.457Z" fill="#0c0c0c"></path>
          </g>
          <g opacity="0.25">
            <path d="M316.559,133.141a.327.327,0,0,0,.452.077l14.562-10.086a.329.329,0,0,0,.082-.457.34.34,0,0,0-.457-.083l-14.561,10.086a.329.329,0,0,0-.083.457Z" fill="#0c0c0c"></path>
          </g>
          <g opacity="0.25">
            <path d="M320.667,139.517a.329.329,0,0,0,.453.076l11.615-8.045a.328.328,0,1,0-.374-.54l-11.616,8.045a.329.329,0,0,0-.083.457Z" fill="#0c0c0c"></path>
          </g>
        </g>
        <path d="M282.743,132.036l-39.359,67.032-48.025-62.992-39.883,35.957,68.111,88.211.446.628a27.234,27.234,0,0,0,46.092-3.373l55.968-101.355Z" fill="#367cff"></path>
        <path d="M239.526,207.129a.507.507,0,0,1-.228-.055.5.5,0,0,1-.218-.673l3.859-7.56a.5.5,0,1,1,.891.455l-3.859,7.56A.5.5,0,0,1,239.526,207.129Z" fill="#0c0c0c"></path>
        <rect x="181.885" y="208.801" width="21.206" height="1" transform="translate(-27.384 389.621) rotate(-86.752)" fill="#0c0c0c"></rect>
        <g>
          <g>
            <g>
              <path d="M65.766,45.462s-1.844,23.566-7.249,32.061C42.957,101.98,38.21,129.64,53.34,144.295s112.7,15.985,120.472-17.229c6.547-27.963-6.772-31.132-9.754-54.3-1.349-10.481-5.139-32.471-5.139-32.471" fill="#0a0a0a"></path>
              <path id="sk" d="M148.974,121.756c-.168-.022-2.037,30.992-38.066,28.288-24.942-1.869-33.835-28.332-34.407-28.332,2.689-.571,7.218-1.4,8.412-2.04,3.927-2.11,8.787-4.306,10.053-11.933.73-4.4-.508-26.886-.127-31.333l38.286,8.545c-.535,9.394-4.279,31.171,8.844,35.025C144.153,120.613,146.505,121.2,148.974,121.756Z" fill="#E98862"></path>
              <path id="sh" d="M133.662,111.076a27.742,27.742,0,0,1-1.152-5.942,63.339,63.339,0,0,1,.25-13.821,41.971,41.971,0,0,1-21.16-9.271c-.711,2.626-4.621,14.1-3.538,16.594C110.108,103.352,119.724,111.076,133.662,111.076Z" fill="#0c0c0c" opacity="0.52"></path>
              <path d="M128.587,101.315c-15.11,1.286-34.57-4.978-38.382-25.125L86.764,58.011c-3.813-20.147,3.678-38.482,22.648-42.072h0c18.969-3.59,36.239,10.059,40.052,30.206l1.523,8.048C152.45,61.924,155.548,99.021,128.587,101.315Z" fill="#E98862"></path>
              <circle cx="145.58" cy="52.693" r="2.378" fill="#0c0c0c"></circle>
              <circle cx="121.219" cy="55.947" r="2.378" fill="#0c0c0c"></circle>
              <path d="M134.588,73.38l.037,0a21.238,21.238,0,0,0,2.275-.58c1.115-.359,2.577-.952,2.386-1.96-.217-1.148-5.705-12.938-6.331-14.279a.487.487,0,1,0-.883.412c2.341,5.021,6.111,13.276,6.256,14.049-.125.358-1.977,1.039-3.884,1.4a.487.487,0,0,0,.144.963Z" fill="#0c0c0c"></path>
              <path d="M131.779,82.079A19.92,19.92,0,0,0,140.41,78.8a.487.487,0,1,0-.531-.817c-5.585,3.639-11.134,4.227-16.047,1.7a3.177,3.177,0,0,0-.306-.145.487.487,0,0,0-.331.916c.039.016.1.05.192.1A14.6,14.6,0,0,0,131.779,82.079Z" fill="#0c0c0c"></path>
              <path d="M71.589,64.347l17-3.118c12.878-5.211,16.773-27.506,16.773-27.506S121.01,48.97,158.919,40.3c0,0-7.6-52.867-63.606-37.5-18.059,4.957-31.02,23.155-29.4,47.476C67.039,67.323,71.589,64.347,71.589,64.347Z" fill="#0a0a0a"></path>
              <path d="M92.544,82.105c-5.764,1.091-11.605-4.192-12.7-9.957s2.981-9.828,8.746-10.919l3.7,3.3L97.5,81.167Z" fill="#E98862"></path>
              <path d="M136.429,46.921a11.166,11.166,0,0,1,5.624-1.776,9.881,9.881,0,0,1,2.924.309,11.637,11.637,0,0,1,2.709,1.073.509.509,0,0,1-.442.917l-.036-.017a10.515,10.515,0,0,0-2.486-.855,8.628,8.628,0,0,0-2.593-.155,9.779,9.779,0,0,0-4.786,1.729l-.046.033a.764.764,0,1,1-.9-1.238Z" fill="#0c0c0c"></path>
              <path d="M121.263,50.491a9.8,9.8,0,0,0-5.087.117,8.653,8.653,0,0,0-2.362,1.082,10.484,10.484,0,0,0-2.009,1.7l-.027.027a.509.509,0,0,1-.744-.694,11.6,11.6,0,0,1,2.139-1.979,9.8,9.8,0,0,1,2.614-1.345,11.167,11.167,0,0,1,5.887-.376.765.765,0,0,1-.322,1.5l-.031-.007Z" fill="#0c0c0c"></path>
              <path d="M132.437,86.653a9.988,9.988,0,0,0,1.656-.333.487.487,0,1,0-.269-.936c-3.261.938-5.115-.305-5.192-.359a.487.487,0,0,0-.56.8A6.61,6.61,0,0,0,132.437,86.653Z" fill="#0c0c0c"></path>
              <path d="M88.631,61.014l-.169-.471c21.545-7.735,16.276-28.878,16.221-29.091l.483-.126C105.223,31.542,110.612,53.122,88.631,61.014Z" fill="#0c0c0c"></path>
            </g>
            <ellipse cx="118.944" cy="71.56" rx="4.53" ry="3.323" transform="translate(-6.973 13.135) rotate(-6.141)" fill="#0c0c0c" opacity="0.1"></ellipse>
            <path d="M145.629,67.884c.2,1.822,2.376,3.082,4.864,2.818a6.289,6.289,0,0,0,1.265-.271c.14-2.168.171-4.255.13-6.188a5.722,5.722,0,0,0-2.109-.148C147.291,64.359,145.435,66.055,145.629,67.884Z" fill="#0c0c0c" opacity="0.1"></path>
          </g>
          <path d="M193.737,190.034c-1.135,13.332-6.655,96.509-7.746,112.931H41.619c-.85-14.811-10.664-79.576-13.885-108.539-3.075-27.638-9.108-41.475-4.686-49.646,7.226-13.354,26.972-21.07,40.436-22.893,8.222-1.113,20.587-1.911,20.587-1.911s1.047,21.18,26.013,22.359c33.985,1.6,31.716-22.359,31.884-22.359,5.506,0,36.958,3.485,44.653,8.046C207.589,140.439,196.146,161.781,193.737,190.034Z" fill="#367cff"></path>
          <path d="M287.449,199.347l-13.916,67.64a6.131,6.131,0,0,1-5.952,4.894l-95.826.816a6.13,6.13,0,0,1-6.056-7.365l13.916-67.64a6.132,6.132,0,0,1,5.952-4.894l95.826-.816A6.13,6.13,0,0,1,287.449,199.347Z" fill="#292a2e"></path>
          <g>
            <path d="M198.094,247.392a3.7,3.7,0,0,1-2.97,3.841l-2.95.65a.339.339,0,0,1,.22.23.283.283,0,0,1-.04.18,3.545,3.545,0,0,1,2.58,3.2,3.809,3.809,0,0,1-2.91,3.72l-24.91,5.53a17.677,17.677,0,0,1-3.88.43,17.93,17.93,0,0,1-14.77-7.77,11.818,11.818,0,0,1,2.76-16.25l21.19-15.49a3.572,3.572,0,0,1,1.58-.65l-1.95,9.47.52-.12.11-.02,16.25-3.31c1.81-.4,4.29.26,4.61,2.32a3.576,3.576,0,0,1-1.96,3.99c.01.01.03.02.03.04s-.01.03-.01.05l2.81-.62a3.56,3.56,0,0,1,4.33,3.4,3.643,3.643,0,0,1-2.92,3.57l-1.21.27c-.01.04,0,.08-.02.11A3.551,3.551,0,0,1,198.094,247.392Z" fill="#E98862"></path>
            <g opacity="0.25">
              <path d="M175.417,240.715a.329.329,0,0,0,.386.248l15.548-3.188a.329.329,0,1,0-.132-.644l-15.548,3.189a.329.329,0,0,0-.256.388Z" fill="#0c0c0c"></path>
            </g>
            <g opacity="0.25">
              <path d="M176.634,247.611a.328.328,0,0,0,.386.248l17.352-3.558a.33.33,0,0,0,.256-.388.341.341,0,0,0-.388-.256l-17.352,3.559a.329.329,0,0,0-.256.388Z" fill="#0c0c0c"></path>
            </g>
            <g opacity="0.25">
              <path d="M177.909,255.088a.329.329,0,0,0,.386.248l13.841-2.838a.329.329,0,1,0-.132-.644l-13.841,2.839a.328.328,0,0,0-.256.387Z" fill="#0c0c0c"></path>
            </g>
          </g>
          <path id="b_4_b" d="M165.571,274.6,30.426,299.021A27.454,27.454,0,0,1,.381,267.172L19.3,154.715a27.455,27.455,0,1,1,54.15,9.11l-12.9,77.415L159.629,228.8Z" fill="#367cff"></path>
          <g id="b_4_b-2" data-name="b_4_b">
            <path d="M30.425,299.521a.5.5,0,0,1-.088-.992l134.677-24.338L159.2,229.355,60.611,241.736a.492.492,0,0,1-.423-.149.5.5,0,0,1-.133-.429l8.2-49.477a.5.5,0,0,1,.575-.412.5.5,0,0,1,.412.576L61.151,240.66,159.567,228.3a.5.5,0,0,1,.558.431l5.942,45.8a.5.5,0,0,1-.407.557L30.515,299.514A.682.682,0,0,1,30.425,299.521Z" fill="#0c0c0c"></path>
          </g>
          <rect x="51.8" y="241.438" width="8.804" height="1.001" transform="translate(-37.536 11.925) rotate(-9.095)" fill="#0c0c0c"></rect>
        </g>
      </g>
    </g>
    <path d="M769.791,770.146H9.372a.7.7,0,0,1,0-1.4H769.791a.7.7,0,1,1,0,1.4Z" fill="#292a2e"></path>
    <g>
      <path d="M733.665,662.344a.819.819,0,0,1-.581-.241c-1.158-1.158-3.046-22.407-8.131-85.674-2.081-25.888-4.047-50.339-5.481-65.2-.1-1.062-.513-1.185-.649-1.226-1.963-.592-7.934,4.116-11.267,8.239a.822.822,0,0,1-1.279-1.034c2.2-2.726,9.389-9.872,13.019-8.779a2.685,2.685,0,0,1,1.813,2.642c1.435,14.873,3.4,39.331,5.483,65.225,3.09,38.447,6.59,82,7.741,84.745a.823.823,0,0,1-.668,1.3Z" fill="#494949"></path>
      <ellipse cx="702.76" cy="520.286" rx="31.654" ry="23.344" transform="translate(-170.992 553.859) rotate(-38.715)" fill="#0cbc8b"></ellipse>
      <ellipse cx="702.76" cy="520.286" rx="31.654" ry="23.344" transform="translate(-170.992 553.859) rotate(-38.715)" fill="#fff" opacity="0.2"></ellipse>
      <path d="M681.885,542.639a.41.41,0,0,1-.316-.673l38.875-46.879a.411.411,0,0,1,.633.525L682.2,542.491A.409.409,0,0,1,681.885,542.639Z" fill="#fff"></path>
      <path d="M742.144,652.294a.794.794,0,0,1-.27-.046.82.82,0,0,1-.506-1.046l14.6-41.995a7.807,7.807,0,0,1,12.765-3.081l7.72,7.375a.822.822,0,0,1-1.136,1.189l-7.72-7.375a6.163,6.163,0,0,0-10.077,2.432l-14.6,42A.822.822,0,0,1,742.144,652.294Z" fill="#494949"></path>
      <ellipse cx="778.378" cy="611.928" rx="23.344" ry="31.654" transform="translate(-211.731 615.218) rotate(-38.363)" fill="#0cbc8b"></ellipse>
      <path d="M727.031,659.666a.823.823,0,0,1-.8-.631l-24.5-102.461a3.905,3.905,0,0,0-6.751-1.648l-7.554,8.73a.822.822,0,1,1-1.243-1.076l7.554-8.729a5.549,5.549,0,0,1,9.593,2.341l24.5,102.461a.821.821,0,0,1-.608.991A.838.838,0,0,1,727.031,659.666Z" fill="#494949"></path>
      <ellipse cx="694.987" cy="582.439" rx="31.654" ry="23.344" transform="translate(2.645 1168.02) rotate(-80.189)" fill="#0cbc8b"></ellipse>
      <path d="M733.666,662.344a.868.868,0,0,1-.1-.006.823.823,0,0,1-.716-.916L748.5,534.371a7.239,7.239,0,0,1,12.611-3.907l17.886,20.258a.822.822,0,1,1-1.232,1.088l-17.886-20.257a5.6,5.6,0,0,0-9.747,3.019l-15.648,127.05A.822.822,0,0,1,733.666,662.344Z" fill="#494949"></path>
      <ellipse cx="769.639" cy="546.658" rx="23.344" ry="31.654" transform="translate(-81.243 955.532) rotate(-61.051)" fill="#0cbc8b"></ellipse>
      <ellipse cx="778.378" cy="611.928" rx="23.344" ry="31.654" transform="translate(-211.731 615.218) rotate(-38.363)" fill="#fff" opacity="0.2"></ellipse>
      <ellipse cx="694.987" cy="582.439" rx="31.654" ry="23.344" transform="translate(2.645 1168.02) rotate(-80.189)" fill="#fff" opacity="0.5"></ellipse>
      <ellipse cx="769.639" cy="546.658" rx="23.344" ry="31.654" transform="translate(-81.243 955.532) rotate(-61.051)" fill="#fff" opacity="0.5"></ellipse>
      <polygon points="753.68 770.146 713.65 770.146 707.017 642.071 760.313 642.071 753.68 770.146" fill="#292a2e"></polygon>
      <polygon points="753.68 770.146 713.65 770.146 707.017 642.071 760.313 642.071 753.68 770.146" fill="#fff" opacity="0.3"></polygon>
      <path d="M798.025,637.158A.411.411,0,0,1,797.7,637l-39.292-49.64a.411.411,0,0,1,.645-.51l39.292,49.639a.41.41,0,0,1-.322.666Z" fill="#fff"></path>
      <path d="M794.725,565.956a.4.4,0,0,1-.242-.079L744.2,529.163a.411.411,0,1,1,.485-.663l50.28,36.713a.411.411,0,0,1-.243.743Z" fill="#fff"></path>
      <path d="M687.554,613.1a.393.393,0,0,1-.107-.014.411.411,0,0,1-.291-.5l16.007-59.969a.411.411,0,0,1,.794.212L687.95,612.793A.41.41,0,0,1,687.554,613.1Z" fill="#fff"></path>
    </g>
  </g>
</svg>