<svg xmlns="http://www.w3.org/2000/svg" viewBox="0 0 907.087 858.036">
  <g id="Layer_8" data-name="Layer 8">
    <g>
      <polygon points="657.436 597.912 708.426 483.096 786.054 448.065 907.087 501.819 830.307 674.684 657.436 597.912" fill="#f4f4f4"></polygon>
      <rect x="711.885" y="550.457" width="140.331" height="4.783" rx="2.391" transform="translate(293.638 -270.983) rotate(24.081)" fill="#292a2e" opacity="0.05"></rect>
      <rect x="701.487" y="575.28" width="140.331" height="4.783" rx="2.391" transform="translate(302.862 -264.579) rotate(24.081)" fill="#292a2e" opacity="0.05"></rect>
      <path d="M772.261,605.236l-72.129-32.009a2.393,2.393,0,0,0-3.16,1.207h0a2.391,2.391,0,0,0,1.208,3.159l72.129,32.01a2.392,2.392,0,0,0,3.159-1.208h0A2.392,2.392,0,0,0,772.261,605.236Z" fill="#292a2e" opacity="0.05"></path>
      <polygon points="786.054 448.065 760.975 506.372 708.426 483.096 786.054 448.065" fill="#fff" opacity="0.4"></polygon>
    </g>
    <g>
      <polygon points="40.646 316.234 12.346 193.834 53.306 119.164 182.336 89.334 224.936 273.624 40.646 316.234" fill="#f4f4f4"></polygon>
      <rect x="42.95" y="202.903" width="140.331" height="4.783" rx="2.391" transform="translate(-42.928 30.39) rotate(-12.884)" fill="#292a2e" opacity="0.05"></rect>
      <rect x="49.569" y="228.99" width="140.331" height="4.783" rx="2.391" transform="translate(-48.578 32.523) rotate(-12.884)" fill="#292a2e" opacity="0.05"></rect>
      <path d="M136.795,253.039l-76.879,17.8a2.392,2.392,0,0,0-1.8,2.864h0a2.391,2.391,0,0,0,2.865,1.8l76.879-17.8a2.393,2.393,0,0,0,1.8-2.865h0A2.393,2.393,0,0,0,136.795,253.039Z" fill="#292a2e" opacity="0.05"></path>
      <polygon points="53.306 119.164 68.329 180.833 12.346 193.834 53.306 119.164" fill="#fff" opacity="0.4"></polygon>
    </g>
    <g>
      <g>
        <g>
          <path d="M655.014,691.451H138a26.313,26.313,0,0,1-26.312-26.312l18-583.634h568.64l-17,583.634A26.312,26.312,0,0,1,655.014,691.451Z" fill="#292a2e"></path>
          <path d="M655.014,691.451H138a26.313,26.313,0,0,1-26.312-26.312l18-583.634h568.64l-17,583.634A26.312,26.312,0,0,1,655.014,691.451Z" fill="#fff" opacity="0.9"></path>
          <path d="M655.014,692.45H138a27.343,27.343,0,0,1-27.313-27.312l18-584.633h570.64l-17,584.633A27.343,27.343,0,0,1,655.014,692.45ZM130.686,82.505l-18,582.633A25.341,25.341,0,0,0,138,690.45H655.014a25.341,25.341,0,0,0,25.312-25.312l17-582.633Z" fill="#292a2e"></path>
        </g>
        <path d="M674.014,23.635H157a27.343,27.343,0,0,0-27.313,27.313l-1,31.557h570.64l2-31.557A27.343,27.343,0,0,0,674.014,23.635Z" fill="#0c0c0c"></path>
      </g>
      <g>
        <path d="M684.014,23.635H161a27.343,27.343,0,0,0-27.313,27.313V82.505h577.64V50.948A27.343,27.343,0,0,0,684.014,23.635Z" fill="#292a2e"></path>
        <g>
          <path d="M134.686,81.5h575.64a0,0,0,0,1,0,0V675.139a26.312,26.312,0,0,1-26.312,26.312H161a26.312,26.312,0,0,1-26.312-26.312V81.5A0,0,0,0,1,134.686,81.5Z" fill="#fff"></path>
          <path d="M684.014,702.45H161a27.343,27.343,0,0,1-27.313-27.312V80.505h577.64V675.138A27.343,27.343,0,0,1,684.014,702.45ZM135.686,82.505V675.138A25.341,25.341,0,0,0,161,700.45H684.014a25.341,25.341,0,0,0,25.312-25.312V82.505Z" fill="#292a2e"></path>
        </g>
        <path d="M236.653,204.784H179.194a12.093,12.093,0,0,1-12.08-12.079v-57.46a12.093,12.093,0,0,1,12.08-12.079h57.459a12.093,12.093,0,0,1,12.079,12.079v57.46A12.093,12.093,0,0,1,236.653,204.784Zm-57.459-79.618a10.091,10.091,0,0,0-10.08,10.079v57.46a10.091,10.091,0,0,0,10.08,10.079h57.459a10.091,10.091,0,0,0,10.079-10.079v-57.46a10.091,10.091,0,0,0-10.079-10.079Z" fill="#292a2e"></path>
        <path d="M236.653,318.622H179.194a12.093,12.093,0,0,1-12.08-12.079V249.084A12.094,12.094,0,0,1,179.194,237h57.459a12.093,12.093,0,0,1,12.079,12.08v57.459A12.093,12.093,0,0,1,236.653,318.622ZM179.194,239a10.092,10.092,0,0,0-10.08,10.08v57.459a10.091,10.091,0,0,0,10.08,10.079h57.459a10.09,10.09,0,0,0,10.079-10.079V249.084A10.091,10.091,0,0,0,236.653,239Z" fill="#292a2e"></path>
        <path d="M236.653,432.46H179.194a12.093,12.093,0,0,1-12.08-12.079V362.922a12.093,12.093,0,0,1,12.08-12.079h57.459a12.093,12.093,0,0,1,12.079,12.079v57.459A12.093,12.093,0,0,1,236.653,432.46Zm-57.459-79.617a10.091,10.091,0,0,0-10.08,10.079v57.459a10.091,10.091,0,0,0,10.08,10.079h57.459a10.09,10.09,0,0,0,10.079-10.079V362.922a10.09,10.09,0,0,0-10.079-10.079Z" fill="#292a2e"></path>
        <path d="M236.653,544.734H179.194a12.093,12.093,0,0,1-12.08-12.079V475.2a12.094,12.094,0,0,1,12.08-12.08h57.459a12.093,12.093,0,0,1,12.079,12.08v57.459A12.093,12.093,0,0,1,236.653,544.734Zm-57.459-79.618a10.091,10.091,0,0,0-10.08,10.08v57.459a10.091,10.091,0,0,0,10.08,10.079h57.459a10.091,10.091,0,0,0,10.079-10.079V475.2a10.09,10.09,0,0,0-10.079-10.08Z" fill="#292a2e"></path>
        <path d="M236.653,657.008H179.194a12.094,12.094,0,0,1-12.08-12.08V587.469a12.094,12.094,0,0,1,12.08-12.08h57.459a12.093,12.093,0,0,1,12.079,12.08v57.459A12.093,12.093,0,0,1,236.653,657.008Zm-57.459-79.619a10.092,10.092,0,0,0-10.08,10.08v57.459a10.092,10.092,0,0,0,10.08,10.08h57.459a10.091,10.091,0,0,0,10.079-10.08V587.469a10.091,10.091,0,0,0-10.079-10.08Z" fill="#292a2e"></path>
        <path d="M197.7,186.963a3.984,3.984,0,0,1-2.771-1.117l-16.748-16.1a4,4,0,1,1,5.544-5.767l13.907,13.367L232.5,142.172a4,4,0,1,1,5.682,5.631l-37.634,37.975A3.99,3.99,0,0,1,197.7,186.963Z" fill="#367cff"></path>
        <path d="M197.7,300.8a3.988,3.988,0,0,1-2.771-1.117l-16.748-16.1a4,4,0,0,1,5.544-5.768l13.907,13.367L232.5,256.01a4,4,0,0,1,5.682,5.631l-37.634,37.975A3.99,3.99,0,0,1,197.7,300.8Z" fill="#367cff"></path>
        <path d="M197.7,414.639a3.987,3.987,0,0,1-2.771-1.116l-16.748-16.1a4,4,0,0,1,5.544-5.768l13.907,13.367L232.5,369.848a4,4,0,0,1,5.682,5.631l-37.634,37.975A3.989,3.989,0,0,1,197.7,414.639Z" fill="#367cff"></path>
        <rect x="277.346" y="146.184" width="392.57" height="5.582" rx="2.791" fill="#262626" opacity="0.5"></rect>
        <rect x="277.346" y="176.184" width="232.57" height="5.582" rx="2.791" fill="#262626" opacity="0.5"></rect>
        <rect x="277.346" y="260.022" width="392.57" height="5.582" rx="2.791" fill="#262626" opacity="0.5"></rect>
        <rect x="277.346" y="290.022" width="232.57" height="5.582" rx="2.791" fill="#262626" opacity="0.5"></rect>
        <rect x="277.346" y="373.86" width="392.57" height="5.582" rx="2.791" fill="#262626" opacity="0.5"></rect>
        <rect x="277.346" y="403.86" width="232.57" height="5.582" rx="2.791" fill="#262626" opacity="0.5"></rect>
        <rect x="277.346" y="486.134" width="392.57" height="5.582" rx="2.791" fill="#262626" opacity="0.5"></rect>
        <rect x="277.346" y="516.134" width="232.57" height="5.582" rx="2.791" fill="#262626" opacity="0.5"></rect>
        <rect x="277.346" y="598.407" width="392.57" height="5.582" rx="2.791" fill="#262626" opacity="0.5"></rect>
        <rect x="277.346" y="628.407" width="232.57" height="5.582" rx="2.791" fill="#262626" opacity="0.5"></rect>
      </g>
      <g>
        <path d="M203.856,0a23.662,23.662,0,0,0-23.635,23.635h2a21.635,21.635,0,1,1,24.617,21.426,3.323,3.323,0,1,0,.291,1.978A23.633,23.633,0,0,0,203.856,0Z" fill="#f4f4f4"></path>
        <path d="M664.791,23.635a23.635,23.635,0,0,0-47.27,0h2a21.635,21.635,0,1,1,24.617,21.426,3.323,3.323,0,1,0,.291,1.978A23.668,23.668,0,0,0,664.791,23.635Z" fill="#f4f4f4"></path>
        <path d="M602.32,23.635a23.636,23.636,0,0,0-47.271,0h2a21.636,21.636,0,1,1,24.617,21.426,3.323,3.323,0,1,0,.291,1.978A23.668,23.668,0,0,0,602.32,23.635Z" fill="#f4f4f4"></path>
        <path d="M539.849,23.635a23.636,23.636,0,0,0-47.271,0h2A21.636,21.636,0,1,1,519.2,45.061a3.323,3.323,0,1,0,.291,1.978A23.668,23.668,0,0,0,539.849,23.635Z" fill="#f4f4f4"></path>
        <path d="M477.377,23.635a23.635,23.635,0,1,0-47.27,0h2a21.635,21.635,0,1,1,24.617,21.426,3.324,3.324,0,1,0,.29,1.978A23.668,23.668,0,0,0,477.377,23.635Z" fill="#f4f4f4"></path>
        <path d="M414.906,23.635a23.636,23.636,0,0,0-47.271,0h2a21.636,21.636,0,1,1,24.617,21.426,3.323,3.323,0,1,0,.291,1.978A23.668,23.668,0,0,0,414.906,23.635Z" fill="#f4f4f4"></path>
        <path d="M352.434,23.635a23.635,23.635,0,0,0-47.27,0h2a21.635,21.635,0,1,1,24.617,21.426,3.324,3.324,0,1,0,.29,1.978A23.668,23.668,0,0,0,352.434,23.635Z" fill="#f4f4f4"></path>
        <path d="M289.963,23.635a23.636,23.636,0,0,0-47.271,0h2a21.636,21.636,0,1,1,24.617,21.426,3.323,3.323,0,1,0,.291,1.978A23.668,23.668,0,0,0,289.963,23.635Z" fill="#f4f4f4"></path>
      </g>
      <g opacity="0.6">
        <path d="M203.856,0a23.662,23.662,0,0,0-23.635,23.635h2a21.635,21.635,0,1,1,24.617,21.426,3.323,3.323,0,1,0,.291,1.978A23.633,23.633,0,0,0,203.856,0Z" fill="#292a2e"></path>
        <path d="M664.791,23.635a23.635,23.635,0,0,0-47.27,0h2a21.635,21.635,0,1,1,24.617,21.426,3.323,3.323,0,1,0,.291,1.978A23.668,23.668,0,0,0,664.791,23.635Z" fill="#292a2e"></path>
        <path d="M602.32,23.635a23.636,23.636,0,0,0-47.271,0h2a21.636,21.636,0,1,1,24.617,21.426,3.323,3.323,0,1,0,.291,1.978A23.668,23.668,0,0,0,602.32,23.635Z" fill="#292a2e"></path>
        <path d="M539.849,23.635a23.636,23.636,0,0,0-47.271,0h2A21.636,21.636,0,1,1,519.2,45.061a3.323,3.323,0,1,0,.291,1.978A23.668,23.668,0,0,0,539.849,23.635Z" fill="#292a2e"></path>
        <path d="M477.377,23.635a23.635,23.635,0,1,0-47.27,0h2a21.635,21.635,0,1,1,24.617,21.426,3.324,3.324,0,1,0,.29,1.978A23.668,23.668,0,0,0,477.377,23.635Z" fill="#292a2e"></path>
        <path d="M414.906,23.635a23.636,23.636,0,0,0-47.271,0h2a21.636,21.636,0,1,1,24.617,21.426,3.323,3.323,0,1,0,.291,1.978A23.668,23.668,0,0,0,414.906,23.635Z" fill="#292a2e"></path>
        <path d="M352.434,23.635a23.635,23.635,0,0,0-47.27,0h2a21.635,21.635,0,1,1,24.617,21.426,3.324,3.324,0,1,0,.29,1.978A23.668,23.668,0,0,0,352.434,23.635Z" fill="#292a2e"></path>
        <path d="M289.963,23.635a23.636,23.636,0,0,0-47.271,0h2a21.636,21.636,0,1,1,24.617,21.426,3.323,3.323,0,1,0,.291,1.978A23.668,23.668,0,0,0,289.963,23.635Z" fill="#292a2e"></path>
      </g>
    </g>
    <g>
      <path d="M75.8,724.8a.993.993,0,0,1-.707-.293c-1.409-1.408-3.706-27.258-9.892-104.223-2.531-31.492-4.922-61.238-6.667-79.315-.124-1.291-.625-1.441-.789-1.49-2.389-.721-9.652,5.006-13.707,10.022a1,1,0,1,1-1.556-1.258c2.682-3.316,11.422-12.009,15.838-10.68.89.268,1.995,1.042,2.2,3.214,1.746,18.093,4.138,47.847,6.67,79.347,3.759,46.77,8.017,99.756,9.417,103.093A1,1,0,0,1,75.8,724.8Z" fill="#494949"></path>
      <ellipse cx="38.203" cy="551.981" rx="38.507" ry="28.398" transform="translate(-336.839 145.181) rotate(-38.715)" fill="#0cbc8b"></ellipse>
      <ellipse cx="38.203" cy="551.981" rx="38.507" ry="28.398" transform="translate(-336.839 145.181) rotate(-38.715)" fill="#fff" opacity="0.2"></ellipse>
      <path d="M12.81,579.174a.493.493,0,0,1-.319-.115.5.5,0,0,1-.066-.7l47.291-57.029a.5.5,0,0,1,.77.639L13.2,578.994A.5.5,0,0,1,12.81,579.174Z" fill="#fff"></path>
      <path d="M86.114,712.57a1,1,0,0,1-.944-1.329l17.764-51.087a9.5,9.5,0,0,1,15.528-3.748l9.392,8.971a1,1,0,0,1-1.382,1.447l-9.391-8.972a7.5,7.5,0,0,0-12.259,2.959L87.059,711.9A1,1,0,0,1,86.114,712.57Z" fill="#494949"></path>
      <ellipse cx="130.193" cy="663.463" rx="28.398" ry="38.507" transform="translate(-383.666 224.052) rotate(-38.363)" fill="#0cbc8b"></ellipse>
      <path d="M67.73,721.538a1,1,0,0,1-.972-.768L36.947,596.125a4.751,4.751,0,0,0-8.212-2l-9.19,10.62a1,1,0,1,1-1.512-1.309l9.189-10.619a6.751,6.751,0,0,1,11.671,2.848L68.7,720.305a1,1,0,0,1-.74,1.205A.983.983,0,0,1,67.73,721.538Z" fill="#494949"></path>
      <ellipse cx="28.748" cy="627.591" rx="38.507" ry="28.398" transform="translate(-594.563 548.982) rotate(-80.189)" fill="#0cbc8b"></ellipse>
      <path d="M75.8,724.8a1.014,1.014,0,0,1-.123-.007,1,1,0,0,1-.871-1.115L93.843,569.116a8.807,8.807,0,0,1,15.342-4.753l21.758,24.643a1,1,0,1,1-1.5,1.324l-21.758-24.643a6.806,6.806,0,0,0-11.857,3.673L76.792,723.917A1,1,0,0,1,75.8,724.8Z" fill="#494949"></path>
      <ellipse cx="119.563" cy="584.063" rx="28.398" ry="38.507" transform="translate(-449.394 405.981) rotate(-61.051)" fill="#0cbc8b"></ellipse>
      <ellipse cx="130.193" cy="663.463" rx="28.398" ry="38.507" transform="translate(-383.666 224.052) rotate(-38.363)" fill="#fff" opacity="0.2"></ellipse>
      <ellipse cx="28.748" cy="627.591" rx="38.507" ry="28.398" transform="translate(-594.563 548.982) rotate(-80.189)" fill="#fff" opacity="0.5"></ellipse>
      <ellipse cx="119.563" cy="584.063" rx="28.398" ry="38.507" transform="translate(-449.394 405.981) rotate(-61.051)" fill="#fff" opacity="0.5"></ellipse>
      <polygon points="100.148 855.937 51.451 855.937 43.382 700.133 108.217 700.133 100.148 855.937" fill="#292a2e"></polygon>
      <polygon points="100.148 855.937 51.451 855.937 43.382 700.133 108.217 700.133 100.148 855.937" fill="#fff" opacity="0.3"></polygon>
      <path d="M154.093,694.157a.5.5,0,0,1-.392-.19l-47.8-60.386a.5.5,0,1,1,.784-.621l47.8,60.386a.5.5,0,0,1-.392.811Z" fill="#fff"></path>
      <path d="M150.08,607.539a.5.5,0,0,1-.3-.1L88.619,562.781a.5.5,0,1,1,.59-.808l61.166,44.663a.5.5,0,0,1-.295.9Z" fill="#fff"></path>
      <path d="M19.7,664.888a.519.519,0,0,1-.129-.017.5.5,0,0,1-.354-.612l19.471-72.953a.5.5,0,0,1,.966.257L20.188,664.517A.5.5,0,0,1,19.7,664.888Z" fill="#fff"></path>
    </g>
    <g>
      <path d="M842.335,296.812l2.812-2.316a4.6,4.6,0,0,0,.692-6.239,4.429,4.429,0,0,0-6.408-.533l-33.37,29.623,9.225,10.935a22.306,22.306,0,0,0,23.989,6.815l19.116-6.295a4.538,4.538,0,0,0,3.181-4.779C861.31,321.972,842.335,296.812,842.335,296.812Z" fill="#E98862"></path>
      <path d="M822.39,297.041l-92.054,28.524L674.2,230.472l-47.958,28.043,70.767,114.367.449.572a28.418,28.418,0,0,0,31.757,8.9l109.728-39.746Z" fill="#367cff"></path>
      <g>
        <polygon points="878.57 797.459 801.82 801.066 772.218 297.154 848.969 293.548 878.57 797.459" fill="#367cff"></polygon>
        <polygon points="878.57 797.459 801.82 801.066 772.218 297.154 848.969 293.548 878.57 797.459" fill="#fff" opacity="0.5"></polygon>
        <rect x="770.871" y="239.802" width="76.835" height="55.58" transform="translate(-11.669 38.284) rotate(-2.691)" fill="#262626"></rect>
        <path d="M878.573,797.458s-10.531,18.286-20.022,34.637c-7.527,12.968-14.4,24.72-14.843,25.159-.456.455-9.035-10.952-18.31-23.6-11.273-15.37-23.58-32.586-23.58-32.586Z" fill="#367cff"></path>
        <path d="M878.573,797.458s-10.531,18.286-20.022,34.637c-7.527,12.968-14.4,24.72-14.843,25.159-.456.455-9.035-10.952-18.31-23.6-11.273-15.37-23.58-32.586-23.58-32.586Z" fill="#fff" opacity="0.9"></path>
        <path d="M858.551,832.1c-7.527,12.968-14.4,24.72-14.843,25.159-.456.455-9.035-10.952-18.31-23.6Z" fill="#262626"></path>
        <polygon points="854.666 798.436 823.712 294.835 827.214 294.659 858.167 798.259 854.666 798.436" fill="#fff"></polygon>
        <polygon points="824.639 799.859 793.685 296.258 797.187 296.082 828.141 799.682 824.639 799.859" fill="#fff"></polygon>
      </g>
      <path d="M837.426,320.309a4.438,4.438,0,0,1,3.229-4.277c-.033-.071-.162-.22-.037-.27l-3.646-.646a4.517,4.517,0,0,1-3.825-4.539,4.351,4.351,0,0,1,4.121-4.131c-.026-.035-.017-.084-.031-.126l-1.5-.266a4.46,4.46,0,0,1-3.755-4.211,4.358,4.358,0,0,1,5.115-4.39l3.458.612c0-.019-.015-.033-.012-.052s.028-.038.036-.06a4.351,4.351,0,0,1-2.6-4.766c.279-2.536,3.275-3.48,5.511-3.084l6.945,1.8a6.719,6.719,0,0,1,4.664,4.3c3.143,9.05,10.789,32.881,3.654,31.617l-17.566-3.112A4.717,4.717,0,0,1,837.426,320.309Z" fill="#E98862"></path>
      <path d="M545.54,137.094s-10.35-8.958-11.782-28.079c-1.109-14.8,11.782-4.4,11.782-4.4s-.695-10.668,6.935-9.1,11.2,12.962,11.2,12.962" fill="#0c0c0c"></path>
      <path d="M592.212,99.421s37.95,6.659,20.661,57.529H602.579" fill="#0c0c0c"></path>
      <g>
        <path d="M619.313,795.335s12.144,20.51-3.39,36.021-.4,25.422-.4,25.422l62.669-55.541-27.75-31.311Z" fill="#367cff"></path>
        <path d="M512.682,391.045s-7.057,203.47-6.16,213.4c3.394,37.563,113.938,207.773,113.938,207.773l41.163-35.146L609.059,670.6,575.828,596.4s5.72-63.815,21.139-123.073a459.358,459.358,0,0,0,14.169-92.938h0Z" fill="#262626"></path>
        <path d="M617.286,813.352s-4.515,23.4-26.428,24.709S573.7,856.822,573.7,856.822h83.739V814.985Z" fill="#367cff"></path>
        <path d="M663.115,386.422s-.263-7.035-.207,8.924c.207,59.529-1.776,432.943-1.776,432.943l-55.026-.462L572.773,384Z" fill="#262626"></path>
        <path d="M584.074,535.295l-4.513-69.009s-4.635,28.689-4.635,53.417c0,12.087,2.49,59.942,2.49,59.942Z" fill="#0a0a0a"></path>
      </g>
      <polygon points="591.413 631.199 602.859 784.599 592.145 767.362 581.193 608.382 591.413 631.199" fill="#0a0a0a"></polygon>
      <g>
        <path id="sk" d="M549.473,209.836c.168-.022,2.037,30.991,38.066,28.288,24.942-1.869,33.835-28.332,34.407-28.332-2.689-.571-6.013-1.439-7.334-1.736a14.551,14.551,0,0,1-11.131-12.237c-.73-4.4.508-26.886.127-31.334l-38.286,8.546c.534,9.393,4.279,31.17-8.844,35.025C554.294,208.693,551.942,209.279,549.473,209.836Z" fill="#E98862"></path>
        <path id="sh" d="M564.785,199.156a27.7,27.7,0,0,0,1.151-5.942,63.338,63.338,0,0,0-.25-13.821,41.983,41.983,0,0,0,21.161-9.271c.711,2.626,4.62,14.1,3.538,16.593C588.339,191.432,578.723,199.156,564.785,199.156Z" fill="#0c0c0c" opacity="1"></path>
        <path d="M571.58,191.663c15.162-.342,33.837-8.655,35.468-29.095l1.472-18.443c1.631-20.44-7.782-37.866-27.027-39.4h0c-19.246-1.536-34.953,13.886-36.583,34.326l-.652,8.165a61.977,61.977,0,0,0,.05,8.428c.5,7.418,1.278,18.7,5.761,26.593C554.3,189.689,561.894,191.881,571.58,191.663Z" fill="#E98862"></path>
        <path d="M565.841,172.5a19.908,19.908,0,0,1-8.933-2.335.487.487,0,1,1,.441-.868c5.942,3.018,11.522,3.009,16.136-.028a3.12,3.12,0,0,1,.289-.178.487.487,0,0,1,.428.876c-.037.02-.1.061-.181.116A14.605,14.605,0,0,1,565.841,172.5Z" fill="#0c0c0c" opacity="1"></path>
        <path d="M565.677,177.113A9.87,9.87,0,0,1,564,176.96a.487.487,0,1,1,.167-.96c3.342.584,5.052-.851,5.124-.913a.487.487,0,0,1,.642.733A6.6,6.6,0,0,1,565.677,177.113Z" fill="#0c0c0c" opacity="1"></path>
        <circle cx="550.618" cy="146.208" r="2.378" fill="#0c0c0c"></circle>
        <circle cx="572.656" cy="146.358" r="2.378" fill="#0c0c0c"></circle>
        <path d="M605.356,168.7c5.849.466,11.089-5.412,11.556-11.261s-4.017-9.452-9.866-9.919L603.72,151.2l-3.392,17.1Z" fill="#E98862"></path>
      </g>
      <path d="M504.709,278.113c1.135,13.332,6.656,96.51,7.746,112.932H662.828c.849-14.811,4.664-79.576,7.885-108.539,3.075-27.638,9.108-42.475,4.685-50.646-7.226-13.354-26.971-20.071-40.435-21.894-8.222-1.112-20.588-1.91-20.588-1.91s-1.046,21.18-26.012,22.359c-33.986,1.6-31.716-22.359-31.885-22.359-12.338,0-35.691,2.952-44.652,9.046C491.674,230.805,502.3,249.86,504.709,278.113Z" fill="#367cff"></path>
      <g>
        <path d="M600.163,158.9s-.037-29.079-8.7-31.455c-5.766-1.582-20.5,5.76-33.461,2.376-5.671-1.481-11.22-.424-11.957,2.252-.291,1.06-2.835-14.62,6.946-25.735,7.787-8.849,31.4-9.913,41.862-6.139,28.959,10.449,13.31,48.674,13.31,48.674l-1.986,9.892Z" fill="#0c0c0c"></path>
        <g opacity="1">
          <path d="M562.76,165.427l-.037,0c-1.885-.145-5.031-.6-4.924-2.01.092-1.168,4.263-13.534,4.739-14.94a.481.481,0,0,1,.912.308c-1.852,5.477-4.628,13.913-4.69,14.706.159.348,2.085.825,4.036.976a.482.482,0,0,1-.036.962Z" fill="#0c0c0c"></path>
        </g>
        <path d="M557.3,138.908a8.969,8.969,0,0,0-2.32-.625,9.082,9.082,0,0,0-2.492,0,8.278,8.278,0,0,0-2.405.681,10.209,10.209,0,0,0-2.176,1.328l-.053.04a.833.833,0,0,1-1.049-1.292,11.988,11.988,0,0,1,2.449-1.758,10.243,10.243,0,0,1,2.874-1.051,11.6,11.6,0,0,1,6.165.383,1.252,1.252,0,1,1-.832,2.362c-.03-.011-.059-.022-.088-.035Z" fill="#0c0c0c"></path>
        <path d="M571.259,136.812a11.114,11.114,0,0,1,3.1-.612,11.27,11.27,0,0,1,3.065.229,10.256,10.256,0,0,1,2.873,1.051,12,12,0,0,1,2.449,1.76.832.832,0,0,1-1.046,1.293l-.056-.042a10.209,10.209,0,0,0-2.176-1.328,8.271,8.271,0,0,0-2.4-.682,9.075,9.075,0,0,0-2.491,0,8.977,8.977,0,0,0-2.321.625l-.07.031a1.252,1.252,0,1,1-1.013-2.29C571.2,136.835,571.229,136.822,571.259,136.812Z" fill="#0c0c0c"></path>
      </g>
      <ellipse cx="565.557" cy="105.67" rx="11.823" ry="8.032" transform="translate(311.375 621.822) rotate(-74.365)" fill="#0c0c0c"></ellipse>
      <g id="ha">
        <path id="sk-2" data-name="sk" d="M498.851,412.774a4.433,4.433,0,0,0,2.392-6.427l2.9,4.961a4.6,4.6,0,0,0,5.975,1.923,4.429,4.429,0,0,0,1.8-6.173l1.311,2.246a4.537,4.537,0,0,0,5.341,2.1,4.434,4.434,0,0,0,2.392-6.428l-2.3-3.933a4.429,4.429,0,0,0,6.058,1.591h0c2.324-1.158,2.17-4.35,1.006-6.345l-4.323-8.051,2.856,2.261a4.6,4.6,0,0,0,6.245-.636,4.43,4.43,0,0,0-.827-6.377L503.694,367.1l-18.748,1.319a22.307,22.307,0,0,0-1.614,24.886l10.178,17.364A4.538,4.538,0,0,0,498.851,412.774Z" fill="#E98862"></path>
        <path id="sk-3" data-name="sk" d="M515.736,396.124a.416.416,0,0,1,.782-.239l2.863,5.453a.416.416,0,0,1-.737.387l-2.863-5.453A.451.451,0,0,1,515.736,396.124Z" fill="#E98862"></path>
        <path id="sk-4" data-name="sk" d="M508.025,400.184a.417.417,0,0,1,.781-.242l3.986,7.451a.416.416,0,0,1-.734.393l-3.986-7.451A.415.415,0,0,1,508.025,400.184Z" fill="#E98862"></path>
        <path id="sk-5" data-name="sk" d="M499.649,404.534a.416.416,0,0,1,.785-.233l1.8,3.563a.416.416,0,1,1-.743.376l-1.8-3.564A.413.413,0,0,1,499.649,404.534Z" fill="#E98862"></path>
        <path id="sh-2" data-name="sh" d="M515.736,396.124a.416.416,0,0,1,.782-.239l2.863,5.453a.416.416,0,0,1-.737.387l-2.863-5.453A.451.451,0,0,1,515.736,396.124Z" fill="#0c0c0c" opacity="0.2"></path>
        <path id="sh-3" data-name="sh" d="M508.025,400.184a.417.417,0,0,1,.781-.242l3.986,7.451a.416.416,0,0,1-.734.393l-3.986-7.451A.415.415,0,0,1,508.025,400.184Z" fill="#0c0c0c" opacity="0.2"></path>
        <path id="sh-4" data-name="sh" d="M499.649,404.534a.416.416,0,0,1,.785-.233l1.8,3.563a.416.416,0,1,1-.743.376l-1.8-3.564A.413.413,0,0,1,499.649,404.534Z" fill="#0c0c0c" opacity="0.2"></path>
      </g>
      <path d="M538.435,268.445s-12.069-56.583-25.761-51.871c-10.865,3.738-92.487,71-94.964,73.439a28.868,28.868,0,0,0-.324,40.823l63.53,72.69,36.665-34.368-48.213-52.1Z" fill="#367cff"></path>
      <path d="M505.54,292.952a.388.388,0,0,1-.385-.358l-1.614-22.371a.386.386,0,0,1,.356-.414.382.382,0,0,1,.416.356l1.613,22.371a.385.385,0,0,1-.356.414Z" fill="#0c0c0c"></path>
      <path d="M667.307,327.064h-.028a.386.386,0,0,1-.367-.4l2.669-53.578a.4.4,0,0,1,.406-.366.386.386,0,0,1,.367.405L667.685,326.7A.387.387,0,0,1,667.307,327.064Z" fill="#0c0c0c"></path>
    </g>
    <path d="M883.241,858.036H21.772a.773.773,0,1,1,0-1.546H883.241a.773.773,0,1,1,0,1.546Z" fill="#3f3f3f"></path>
  </g>
</svg>